# xmcd CD database file
# Copyright (C) 1997 Ti Kan
#
# Track frame offsets:
#  150
#  12107
#  26177
#  38397
#  53967
#  67972
#  81215
#  95275
#  108285
#  119917
#
# Disc length: 1787 seconds
#
# Revision: 1
# Processed by: cddbd v1.4b41PL1 Copyright (c) Steve Scherf et al.
# Submitted via: CDWizzard Release:4.32
#
DISCID=7906f90a
DTITLE=Ronnie McDowell - Older Women And Other Greatest Hits
DYEAR=1900
DGENRE=
TTITLE0=Older Women
TTITLE1=Wandering Eyes
TTITLE2=Watchin' Girls Go By
TTITLE3=Personally
TTITLE4=You're Gonna Ruin My Bad Reputation
TTITLE5=You Made A Wanted Man Of Me
TTITLE6=I Dream Of Women Like You
TTITLE7=I Got A Million Of 'Em
TTITLE8=In A New York Minute
TTITLE9=Love Talks
EXTD=
EXTT0=
EXTT1=
EXTT2=
EXTT3=
EXTT4=
EXTT5=
EXTT6=
EXTT7=
EXTT8=
EXTT9=
PLAYORDER=
